<?xml version="1.0" encoding="UTF-8"?><svg xmlns="http://www.w3.org/2000/svg" xmlns:xlink="http://www.w3.org/1999/xlink" fill-opacity="1" color-rendering="auto" color-interpolation="auto" stroke="black" text-rendering="auto" stroke-linecap="square" width="673" stroke-miterlimit="10" stroke-opacity="1" shape-rendering="auto" fill="black" stroke-dasharray="none" font-weight="normal" stroke-width="1" height="481" font-family="'Dialog'" font-style="normal" stroke-linejoin="miter" font-size="12" stroke-dashoffset="0" image-rendering="auto">
  <!--Generated by ySVG 2.5-->
  <defs id="genericDefs"/>
  <g>
    <defs id="defs1">
      <clipPath clipPathUnits="userSpaceOnUse" id="clipPath1">
        <path d="M0 0 L673 0 L673 481 L0 481 L0 0 Z"/>
      </clipPath>
      <clipPath clipPathUnits="userSpaceOnUse" id="clipPath2">
        <path d="M-341 -145 L332 -145 L332 336 L-341 336 L-341 -145 Z"/>
      </clipPath>
    </defs>
    <g fill="rgb(255,204,0)" text-rendering="geometricPrecision" shape-rendering="geometricPrecision" transform="matrix(1,0,0,1,341,145)" stroke="rgb(255,204,0)">
      <rect x="269.0968" width="45.4238" height="30" y="170.8893" clip-path="url(#clipPath2)" stroke="none"/>
    </g>
    <g text-rendering="geometricPrecision" stroke-miterlimit="1.45" shape-rendering="geometricPrecision" font-family="sans-serif" transform="matrix(1,0,0,1,341,145)" stroke-linecap="butt">
      <text x="276.0968" xml:space="preserve" y="190.0435" clip-path="url(#clipPath2)" stroke="none">slave</text>
      <rect fill="none" x="269.0968" width="45.4238" height="30" y="170.8893" clip-path="url(#clipPath2)"/>
    </g>
    <g fill="rgb(255,204,0)" text-rendering="geometricPrecision" shape-rendering="geometricPrecision" transform="matrix(1,0,0,1,341,145)" stroke="rgb(255,204,0)">
      <rect x="-54.5498" width="45.4238" height="30" y="-129.1107" clip-path="url(#clipPath2)" stroke="none"/>
    </g>
    <g text-rendering="geometricPrecision" stroke-miterlimit="1.45" shape-rendering="geometricPrecision" font-family="sans-serif" transform="matrix(1,0,0,1,341,145)" stroke-linecap="butt">
      <text x="-47.5498" xml:space="preserve" y="-109.9565" clip-path="url(#clipPath2)" stroke="none">slave</text>
      <rect fill="none" x="-54.5498" width="45.4238" height="30" y="-129.1107" clip-path="url(#clipPath2)"/>
    </g>
    <g fill="rgb(255,204,0)" text-rendering="geometricPrecision" shape-rendering="geometricPrecision" transform="matrix(1,0,0,1,341,145)" stroke="rgb(255,204,0)">
      <rect x="-279.9152" width="45.4238" height="30" y="230.8893" clip-path="url(#clipPath2)" stroke="none"/>
    </g>
    <g text-rendering="geometricPrecision" stroke-miterlimit="1.45" shape-rendering="geometricPrecision" font-family="sans-serif" transform="matrix(1,0,0,1,341,145)" stroke-linecap="butt">
      <text x="-272.9152" xml:space="preserve" y="250.0435" clip-path="url(#clipPath2)" stroke="none">slave</text>
      <rect fill="none" x="-279.9152" width="45.4238" height="30" y="230.8893" clip-path="url(#clipPath2)"/>
    </g>
    <g fill="rgb(255,204,0)" text-rendering="geometricPrecision" shape-rendering="geometricPrecision" transform="matrix(1,0,0,1,341,145)" stroke="rgb(255,204,0)">
      <rect x="269.0968" width="46.959" height="30" y="110.8893" clip-path="url(#clipPath2)" stroke="none"/>
    </g>
    <g text-rendering="geometricPrecision" stroke-miterlimit="1.45" shape-rendering="geometricPrecision" font-family="sans-serif" transform="matrix(1,0,0,1,341,145)" stroke-linecap="butt">
      <text x="276.0968" xml:space="preserve" y="130.0435" clip-path="url(#clipPath2)" stroke="none">client</text>
      <rect fill="none" x="269.0968" width="46.959" height="30" y="110.8893" clip-path="url(#clipPath2)"/>
    </g>
    <g fill="rgb(255,204,0)" text-rendering="geometricPrecision" shape-rendering="geometricPrecision" transform="matrix(1,0,0,1,341,145)" stroke="rgb(255,204,0)">
      <rect x="92.3741" width="46.959" height="30" y="230.8893" clip-path="url(#clipPath2)" stroke="none"/>
    </g>
    <g text-rendering="geometricPrecision" stroke-miterlimit="1.45" shape-rendering="geometricPrecision" font-family="sans-serif" transform="matrix(1,0,0,1,341,145)" stroke-linecap="butt">
      <text x="99.3741" xml:space="preserve" y="250.0435" clip-path="url(#clipPath2)" stroke="none">client</text>
      <rect fill="none" x="92.3741" width="46.959" height="30" y="230.8893" clip-path="url(#clipPath2)"/>
    </g>
    <g fill="rgb(255,204,0)" text-rendering="geometricPrecision" shape-rendering="geometricPrecision" transform="matrix(1,0,0,1,341,145)" stroke="rgb(255,204,0)">
      <rect x="269.0968" width="46.959" height="30" y="230.8893" clip-path="url(#clipPath2)" stroke="none"/>
    </g>
    <g text-rendering="geometricPrecision" stroke-miterlimit="1.45" shape-rendering="geometricPrecision" font-family="sans-serif" transform="matrix(1,0,0,1,341,145)" stroke-linecap="butt">
      <text x="276.0968" xml:space="preserve" y="250.0435" clip-path="url(#clipPath2)" stroke="none">client</text>
      <rect fill="none" x="269.0968" width="46.959" height="30" y="230.8893" clip-path="url(#clipPath2)"/>
    </g>
    <g fill="rgb(255,204,0)" text-rendering="geometricPrecision" shape-rendering="geometricPrecision" transform="matrix(1,0,0,1,341,145)" stroke="rgb(255,204,0)">
      <rect x="-131.5088" width="46.959" height="30" y="-129.1107" clip-path="url(#clipPath2)" stroke="none"/>
    </g>
    <g text-rendering="geometricPrecision" stroke-miterlimit="1.45" shape-rendering="geometricPrecision" font-family="sans-serif" transform="matrix(1,0,0,1,341,145)" stroke-linecap="butt">
      <text x="-124.5088" xml:space="preserve" y="-109.9565" clip-path="url(#clipPath2)" stroke="none">client</text>
      <rect fill="none" x="-131.5088" width="46.959" height="30" y="-129.1107" clip-path="url(#clipPath2)"/>
    </g>
    <g fill="rgb(255,204,0)" text-rendering="geometricPrecision" shape-rendering="geometricPrecision" transform="matrix(1,0,0,1,341,145)" stroke="rgb(255,204,0)">
      <rect x="20.874" width="46.959" height="30" y="-129.1107" clip-path="url(#clipPath2)" stroke="none"/>
    </g>
    <g text-rendering="geometricPrecision" stroke-miterlimit="1.45" shape-rendering="geometricPrecision" font-family="sans-serif" transform="matrix(1,0,0,1,341,145)" stroke-linecap="butt">
      <text x="27.874" xml:space="preserve" y="-109.9565" clip-path="url(#clipPath2)" stroke="none">client</text>
      <rect fill="none" x="20.874" width="46.959" height="30" y="-129.1107" clip-path="url(#clipPath2)"/>
    </g>
    <g fill="rgb(255,204,0)" text-rendering="geometricPrecision" shape-rendering="geometricPrecision" transform="matrix(1,0,0,1,341,145)" stroke="rgb(255,204,0)">
      <rect x="-280.6828" width="46.959" height="30" y="290.8893" clip-path="url(#clipPath2)" stroke="none"/>
    </g>
    <g text-rendering="geometricPrecision" stroke-miterlimit="1.45" shape-rendering="geometricPrecision" font-family="sans-serif" transform="matrix(1,0,0,1,341,145)" stroke-linecap="butt">
      <text x="-273.6828" xml:space="preserve" y="310.0435" clip-path="url(#clipPath2)" stroke="none">client</text>
      <rect fill="none" x="-280.6828" width="46.959" height="30" y="290.8893" clip-path="url(#clipPath2)"/>
    </g>
    <g fill="rgb(255,204,0)" text-rendering="geometricPrecision" shape-rendering="geometricPrecision" transform="matrix(1,0,0,1,341,145)" stroke="rgb(255,204,0)">
      <rect x="-116.46" width="169.2441" height="30" y="170.8893" clip-path="url(#clipPath2)" stroke="none"/>
    </g>
    <g text-rendering="geometricPrecision" stroke-miterlimit="1.45" shape-rendering="geometricPrecision" font-family="sans-serif" transform="matrix(1,0,0,1,341,145)" stroke-linecap="butt">
      <text x="-109.46" xml:space="preserve" y="190.0435" clip-path="url(#clipPath2)" stroke="none">persistent [cloud] storage</text>
      <rect fill="none" x="-116.46" width="169.2441" height="30" y="170.8893" clip-path="url(#clipPath2)"/>
    </g>
    <g fill="rgb(255,204,0)" text-rendering="geometricPrecision" shape-rendering="geometricPrecision" transform="matrix(1,0,0,1,341,145)" stroke="rgb(255,204,0)">
      <rect x="155.4083" width="73.2734" height="30" y="110.8893" clip-path="url(#clipPath2)" stroke="none"/>
    </g>
    <g text-rendering="geometricPrecision" stroke-miterlimit="1.45" shape-rendering="geometricPrecision" font-family="sans-serif" transform="matrix(1,0,0,1,341,145)" stroke-linecap="butt">
      <text x="162.4083" xml:space="preserve" y="130.0435" clip-path="url(#clipPath2)" stroke="none">DB server</text>
      <rect fill="none" x="155.4083" width="73.2734" height="30" y="110.8893" clip-path="url(#clipPath2)"/>
    </g>
    <g fill="rgb(255,204,0)" text-rendering="geometricPrecision" shape-rendering="geometricPrecision" transform="matrix(1,0,0,1,341,145)" stroke="rgb(255,204,0)">
      <rect x="-68.4746" width="73.2734" height="30" y="110.8893" clip-path="url(#clipPath2)" stroke="none"/>
    </g>
    <g text-rendering="geometricPrecision" stroke-miterlimit="1.45" shape-rendering="geometricPrecision" font-family="sans-serif" transform="matrix(1,0,0,1,341,145)" stroke-linecap="butt">
      <text x="-61.4746" xml:space="preserve" y="130.0435" clip-path="url(#clipPath2)" stroke="none">DB server</text>
      <rect fill="none" x="-68.4746" width="73.2734" height="30" y="110.8893" clip-path="url(#clipPath2)"/>
    </g>
    <g fill="rgb(255,204,0)" text-rendering="geometricPrecision" shape-rendering="geometricPrecision" transform="matrix(1,0,0,1,341,145)" stroke="rgb(255,204,0)">
      <rect x="-293.84" width="73.2734" height="30" y="110.8893" clip-path="url(#clipPath2)" stroke="none"/>
    </g>
    <g text-rendering="geometricPrecision" stroke-miterlimit="1.45" shape-rendering="geometricPrecision" font-family="sans-serif" transform="matrix(1,0,0,1,341,145)" stroke-linecap="butt">
      <text x="-286.84" xml:space="preserve" y="130.0435" clip-path="url(#clipPath2)" stroke="none">DB server</text>
      <rect fill="none" x="-293.84" width="73.2734" height="30" y="110.8893" clip-path="url(#clipPath2)"/>
    </g>
    <g fill="rgb(255,204,0)" text-rendering="geometricPrecision" shape-rendering="geometricPrecision" transform="matrix(1,0,0,1,341,145)" stroke="rgb(255,204,0)">
      <rect x="144.9933" width="94.1035" height="30" y="170.8893" clip-path="url(#clipPath2)" stroke="none"/>
    </g>
    <g text-rendering="geometricPrecision" stroke-miterlimit="1.45" shape-rendering="geometricPrecision" font-family="sans-serif" transform="matrix(1,0,0,1,341,145)" stroke-linecap="butt">
      <text x="151.9933" xml:space="preserve" y="190.0435" clip-path="url(#clipPath2)" stroke="none">master (USA)</text>
      <rect fill="none" x="144.9933" width="94.1035" height="30" y="170.8893" clip-path="url(#clipPath2)"/>
    </g>
    <g fill="rgb(255,204,0)" text-rendering="geometricPrecision" shape-rendering="geometricPrecision" transform="matrix(1,0,0,1,341,145)" stroke="rgb(255,204,0)">
      <rect x="-74.7676" width="85.8594" height="30" y="-69.1107" clip-path="url(#clipPath2)" stroke="none"/>
    </g>
    <g text-rendering="geometricPrecision" stroke-miterlimit="1.45" shape-rendering="geometricPrecision" font-family="sans-serif" transform="matrix(1,0,0,1,341,145)" stroke-linecap="butt">
      <text x="-67.7676" xml:space="preserve" y="-49.9565" clip-path="url(#clipPath2)" stroke="none">master (EU)</text>
      <rect fill="none" x="-74.7676" width="85.8594" height="30" y="-69.1107" clip-path="url(#clipPath2)"/>
    </g>
    <g fill="rgb(255,204,0)" text-rendering="geometricPrecision" shape-rendering="geometricPrecision" transform="matrix(1,0,0,1,341,145)" stroke="rgb(255,204,0)">
      <rect x="-305.7375" width="97.0684" height="30" y="170.8893" clip-path="url(#clipPath2)" stroke="none"/>
    </g>
    <g text-rendering="geometricPrecision" stroke-miterlimit="1.45" shape-rendering="geometricPrecision" font-family="sans-serif" transform="matrix(1,0,0,1,341,145)" stroke-linecap="butt">
      <text x="-298.7375" xml:space="preserve" y="190.0435" clip-path="url(#clipPath2)" stroke="none">master (ASIA)</text>
      <rect fill="none" x="-305.7375" width="97.0684" height="30" y="170.8893" clip-path="url(#clipPath2)"/>
    </g>
    <g fill="rgb(255,204,0)" text-rendering="geometricPrecision" shape-rendering="geometricPrecision" transform="matrix(1,0,0,1,341,145)" stroke="rgb(255,204,0)">
      <rect x="169.3331" width="45.4238" height="30" y="230.8893" clip-path="url(#clipPath2)" stroke="none"/>
    </g>
    <g text-rendering="geometricPrecision" stroke-miterlimit="1.45" shape-rendering="geometricPrecision" font-family="sans-serif" transform="matrix(1,0,0,1,341,145)" stroke-linecap="butt">
      <text x="176.3331" xml:space="preserve" y="250.0435" clip-path="url(#clipPath2)" stroke="none">slave</text>
      <rect fill="none" x="169.3331" width="45.4238" height="30" y="230.8893" clip-path="url(#clipPath2)"/>
      <path fill="none" d="M291.8087 140.8893 L291.8087 162.86" clip-path="url(#clipPath2)"/>
      <path d="M291.8087 170.86 L296.8087 158.86 L291.8087 161.86 L286.8087 158.86 Z" clip-path="url(#clipPath2)" stroke="none"/>
      <path fill="none" d="M291.8087 230.86 L291.8087 208.8893" clip-path="url(#clipPath2)"/>
      <path d="M291.8087 200.8893 L286.8087 212.8893 L291.8087 209.8893 L296.8087 212.8893 Z" clip-path="url(#clipPath2)" stroke="none"/>
      <path fill="none" d="M-84.5498 -114.1107 L-62.5791 -114.1107" clip-path="url(#clipPath2)"/>
      <path d="M-54.5791 -114.1107 L-66.5791 -119.1107 L-63.5791 -114.1107 L-66.5791 -109.1107 Z" clip-path="url(#clipPath2)" stroke="none"/>
      <path fill="none" d="M20.8447 -114.1107 L-1.126 -114.1107" clip-path="url(#clipPath2)"/>
      <path d="M-9.126 -114.1107 L2.874 -109.1107 L-0.126 -114.1107 L2.874 -119.1107 Z" clip-path="url(#clipPath2)" stroke="none"/>
      <path fill="none" d="M-257.2033 290.86 L-257.2033 268.8893" clip-path="url(#clipPath2)"/>
      <path d="M-257.2033 260.8893 L-262.2033 272.8893 L-257.2033 269.8893 L-252.2033 272.8893 Z" clip-path="url(#clipPath2)" stroke="none"/>
      <path fill="none" d="M155.3715 131.8893 L12.7988 131.8893" clip-path="url(#clipPath2)"/>
      <path d="M4.7988 131.8893 L16.7988 136.8893 L13.7988 131.8893 L16.7988 126.8893 Z" clip-path="url(#clipPath2)" stroke="none"/>
      <path fill="none" d="M4.7988 119.8893 L147.3715 119.8893" clip-path="url(#clipPath2)"/>
      <path d="M155.3715 119.8893 L143.3715 114.8893 L146.3715 119.8893 L143.3715 124.8893 Z" clip-path="url(#clipPath2)" stroke="none"/>
      <path fill="none" d="M-68.5118 131.8893 L-212.5666 131.8893" clip-path="url(#clipPath2)"/>
      <path d="M-220.5666 131.8893 L-208.5666 136.8893 L-211.5666 131.8893 L-208.5666 126.8893 Z" clip-path="url(#clipPath2)" stroke="none"/>
      <path fill="none" d="M192.045 140.8893 L192.045 154.955 L186.1107 160.8893 L-229.1107 160.8893 L-234.7788 155.2212 L-234.7788 148.8893" clip-path="url(#clipPath2)"/>
      <path d="M-234.7788 140.8893 L-239.7788 152.8893 L-234.7788 149.8893 L-229.7788 152.8893 Z" clip-path="url(#clipPath2)" stroke="none"/>
      <path fill="none" d="M-220.5666 119.8893 L-76.5118 119.8893" clip-path="url(#clipPath2)"/>
      <path d="M-68.5118 119.8893 L-80.5118 114.8893 L-77.5118 119.8893 L-80.5118 124.8893 Z" clip-path="url(#clipPath2)" stroke="none"/>
      <path fill="none" d="M-257.2033 140.8893 L-257.2033 149.9818 L-256.2958 150.8893 L169.1303 150.8893 L169.6205 150.399 L169.6205 148.8893" clip-path="url(#clipPath2)"/>
      <path d="M169.6205 140.8893 L164.6205 152.8893 L169.6205 149.8893 L174.6205 152.8893 Z" clip-path="url(#clipPath2)" stroke="none"/>
      <path fill="none" d="M52.7841 185.8893 L136.9482 185.8893" clip-path="url(#clipPath2)"/>
      <path d="M144.9482 185.8893 L132.9482 180.8893 L135.9482 185.8893 L132.9482 190.8893 Z" clip-path="url(#clipPath2)" stroke="none"/>
      <path fill="none" d="M214.4695 140.8893 L214.4695 162.86" clip-path="url(#clipPath2)"/>
      <path d="M214.4695 170.86 L219.4695 158.86 L214.4695 161.86 L209.4695 158.86 Z" clip-path="url(#clipPath2)" stroke="none"/>
      <path fill="none" d="M269.0675 197.8893 L247.0968 197.8893" clip-path="url(#clipPath2)"/>
      <path d="M239.0968 197.8893 L251.0968 202.8893 L248.0968 197.8893 L251.0968 192.8893 Z" clip-path="url(#clipPath2)" stroke="none"/>
      <path fill="none" d="M-99.1138 170.8641 L-99.1138 -34.8862 L-91.8893 -42.1107 L-82.801 -42.1107" clip-path="url(#clipPath2)"/>
      <path d="M-74.801 -42.1107 L-86.801 -47.1107 L-83.801 -42.1107 L-86.801 -37.1107 Z" clip-path="url(#clipPath2)" stroke="none"/>
      <path fill="none" d="M-31.8379 110.8526 L-31.8379 -31.1108" clip-path="url(#clipPath2)"/>
      <path d="M-31.8379 -39.1107 L-36.8379 -27.1107 L-31.8379 -30.1107 L-26.8379 -27.1107 Z" clip-path="url(#clipPath2)" stroke="none"/>
      <path fill="none" d="M-31.8379 -99.1107 L-31.8379 -77.14" clip-path="url(#clipPath2)"/>
      <path d="M-31.8379 -69.14 L-26.8379 -81.14 L-31.8379 -78.14 L-36.8379 -81.14 Z" clip-path="url(#clipPath2)" stroke="none"/>
      <path fill="none" d="M239.0968 177.8893 L249.0828 177.8893 L249.0968 177.8753 L249.0968 -37.9032 L226.8893 -60.1107 L19.0918 -60.1107" clip-path="url(#clipPath2)"/>
      <path d="M11.0918 -60.1107 L23.0918 -55.1107 L20.0918 -60.1107 L23.0918 -65.1107 Z" clip-path="url(#clipPath2)" stroke="none"/>
      <path fill="none" d="M11.0918 -48.1107 L228.8893 -48.1107 L259.0968 -17.9032 L259.0968 181.9032 L253.1107 187.8893 L247.0968 187.8893" clip-path="url(#clipPath2)"/>
      <path d="M239.0968 187.8893 L251.0968 192.8893 L248.0968 187.8893 L251.0968 182.8893 Z" clip-path="url(#clipPath2)" stroke="none"/>
      <path fill="none" d="M-74.7955 -62.1107 L-302.8893 -62.1107 L-325.7375 -39.2625 L-325.7375 186.2625 L-320.1107 191.8893 L-313.7655 191.8893" clip-path="url(#clipPath2)"/>
      <path d="M-305.7655 191.8893 L-317.7655 186.8893 L-314.7655 191.8893 L-317.7655 196.8893 Z" clip-path="url(#clipPath2)" stroke="none"/>
      <path fill="none" d="M-116.505 185.8893 L-200.6691 185.8893" clip-path="url(#clipPath2)"/>
      <path d="M-208.6691 185.8893 L-196.6691 190.8893 L-199.6691 185.8893 L-196.6691 180.8893 Z" clip-path="url(#clipPath2)" stroke="none"/>
      <path fill="none" d="M-279.6277 140.8893 L-279.6277 162.86" clip-path="url(#clipPath2)"/>
      <path d="M-279.6277 170.86 L-274.6277 158.86 L-279.6277 161.86 L-284.6277 158.86 Z" clip-path="url(#clipPath2)" stroke="none"/>
      <path fill="none" d="M-266.0408 230.86 L-266.0408 208.8893" clip-path="url(#clipPath2)"/>
      <path d="M-266.0408 200.8893 L-271.0408 212.8893 L-266.0408 209.8893 L-261.0408 212.8893 Z" clip-path="url(#clipPath2)" stroke="none"/>
      <path fill="none" d="M149.3331 200.8893 L149.3331 210.1116 L148.5555 210.8893 L-221.9761 210.8893 L-222.5434 210.3219 L-222.5434 208.8893" clip-path="url(#clipPath2)"/>
      <path d="M-222.5434 200.8893 L-227.5434 212.8893 L-222.5434 209.8893 L-217.5434 212.8893 Z" clip-path="url(#clipPath2)" stroke="none"/>
      <path fill="none" d="M-305.7751 179.8893 L-315.3642 179.8893 L-315.7375 179.516 L-315.7375 -29.2625 L-292.8893 -52.1107 L-82.7942 -52.1107" clip-path="url(#clipPath2)"/>
      <path d="M-74.7942 -52.1107 L-86.7942 -57.1107 L-83.7942 -52.1107 L-86.7942 -47.1107 Z" clip-path="url(#clipPath2)" stroke="none"/>
      <path fill="none" d="M-244.2921 200.8893 L-244.2921 215.7079 L-239.1107 220.8893 L154.1107 220.8893 L159.3331 215.6669 L159.3331 208.8893" clip-path="url(#clipPath2)"/>
      <path d="M159.3331 200.8893 L154.3331 212.8893 L159.3331 209.8893 L164.3331 212.8893 Z" clip-path="url(#clipPath2)" stroke="none"/>
      <path fill="none" d="M139.3331 245.8893 L161.3038 245.8893" clip-path="url(#clipPath2)"/>
      <path d="M169.3038 245.8893 L157.3038 240.8893 L160.3038 245.8893 L157.3038 250.8893 Z" clip-path="url(#clipPath2)" stroke="none"/>
      <path fill="none" d="M192.045 230.86 L192.045 208.8893" clip-path="url(#clipPath2)"/>
      <path d="M192.045 200.8893 L187.045 212.8893 L192.045 209.8893 L197.045 212.8893 Z" clip-path="url(#clipPath2)" stroke="none"/>
    </g>
  </g>
</svg>
